<svg xmlns="http://www.w3.org/2000/svg" xmlns:xlink="http://www.w3.org/1999/xlink" width="40" height="40" viewBox="0 0 40 40" id="camera"><defs><linearGradient id="b" x1="50%" x2="50%" y1="97.58%" y2="4.33%"><stop offset="0%" stop-color="#8E8E93"></stop><stop offset="100%" stop-color="#E5E5EA"></stop></linearGradient><circle id="a" cx="20" cy="20" r="20"></circle></defs><g fill="none" fill-rule="evenodd"><mask id="c" fill="#fff"><use xlink:href="#a"></use></mask><use fill="url(#b)" xlink:href="#a"></use><polyline stroke="#2E2E2F" stroke-linecap="round" stroke-linejoin="round" stroke-width="2.5" points="15 10 19.75 13.521 24.5 10" mask="url(#c)"></polyline><path fill="#2E2E2F" d="M53.0279463,20 C54.9480774,20.0150095 56.5000057,21.5762055 56.5000128,23.4998781 C56.5000128,23.4998824 56.5000128,23.4998866 56.5000128,23.4998909 L56.5,43.9998909 C56.5,45.9328875 54.9329966,47.4998909 53,47.4998909 L44.3664506,47.4998909 C47.7337975,45.5559326 50,41.9176163 50,37.75 C50,31.5367966 44.9632034,26.5 38.75,26.5 C32.5367966,26.5 27.5,31.5367966 27.5,37.75 C27.5,41.9176163 29.7662025,45.5559326 33.1335494,47.4998909 L16,47.4998909 C14.0670034,47.4998909 12.5,45.9328875 12.5,43.9998909 L12.4999712,23.4998909 C12.4999712,21.5668942 14.0669746,19.9998909 15.9999712,19.9998909 C15.9999808,19.9998909 15.9999904,19.9998909 16,19.9998909 L16,19.9999197 L24.2971546,19.999988 C27.8489817,19.9932344 28.6634195,17.1380052 29.0522332,16.442501 C29.8673836,14.9843723 31.415354,14 33.1908437,14 L45.0659362,14 C46.8757529,14 48.4491677,15.0228036 49.2510011,16.5276022 C49.6114446,17.2040454 50.4097278,20 53.9722556,20 L53.0279463,20 Z M26.490802,20 L25.754599,20 L26,20.000002 L26.490802,20 Z M38.75,47.5 C33.3652237,47.5 29,43.1347763 29,37.75 C29,32.3652237 33.3652237,28 38.75,28 C44.1347763,28 48.5,32.3652237 48.5,37.75 C48.5,43.1347763 44.1347763,47.5 38.75,47.5 Z M18,17 L21.5,17 C21.7761424,17 22,17.2238576 22,17.5 L22,19 L17.5,19 L17.5,17.5 C17.5,17.2238576 17.7238576,17 18,17 Z" mask="url(#c)"></path><circle cx="26.5" cy="26.5" r="1.1" fill="#FC0" mask="url(#c)"></circle></g></svg>